<svg xmlns="http://www.w3.org/2000/svg" width="360" height="360" viewBox="0 0 360 360">
  <rect width="360" height="360" fill="none"/>
  <g fill="none" stroke="#8fc7ff" stroke-width="1.4" opacity=".32">
    <path d="M20 54h72v38h64M252 20v78h52M34 168h86v-42h54M210 148h92v76h38M22 286h78v-48h70M200 278h98v-54"/>
    <path d="M92 54v-28M156 92h38M304 98h32M120 168v40M174 126v-34M302 224v54M170 238h42M298 278h38"/>
  </g>
  <g fill="#ffffff" stroke="#8fc7ff" stroke-width="1.4" opacity=".7">
    <circle cx="20" cy="54" r="5"/>
    <circle cx="92" cy="54" r="5"/>
    <circle cx="156" cy="92" r="5"/>
    <circle cx="252" cy="20" r="5"/>
    <circle cx="304" cy="98" r="5"/>
    <circle cx="34" cy="168" r="5"/>
    <circle cx="174" cy="126" r="5"/>
    <circle cx="210" cy="148" r="5"/>
    <circle cx="302" cy="224" r="5"/>
    <circle cx="22" cy="286" r="5"/>
    <circle cx="170" cy="238" r="5"/>
    <circle cx="200" cy="278" r="5"/>
  </g>
  <g opacity=".22" stroke="#ff8db7" stroke-width="1.5" fill="none">
    <path d="M52 328c42-72 104-72 148-20 32 38 76 36 116-8"/>
    <path d="M250 58c-34 12-54 34-60 66-5 30-22 50-54 60"/>
  </g>
  <g fill="#ffb9d2" opacity=".42">
    <circle cx="74" cy="314" r="4"/>
    <circle cx="142" cy="292" r="4"/>
    <circle cx="214" cy="324" r="4"/>
    <circle cx="282" cy="308" r="4"/>
    <circle cx="248" cy="58" r="4"/>
    <circle cx="190" cy="124" r="4"/>
    <circle cx="136" cy="184" r="4"/>
  </g>
</svg>
