<svg xmlns="http://www.w3.org/2000/svg" viewBox="0 0 640 400" role="img" aria-labelledby="title desc">
  <title id="title">Out of Stack notes article cover</title>
  <desc id="desc">A structured stack of notes and highlighted checkpoints.</desc>
  <defs>
    <linearGradient id="c" x1="0" y1="0" x2="640" y2="400" gradientUnits="userSpaceOnUse">
      <stop offset="0" stop-color="#f7f8fb"/>
      <stop offset=".5" stop-color="#ecf8f5"/>
      <stop offset="1" stop-color="#fff0d6"/>
    </linearGradient>
    <filter id="shadow" x="-20%" y="-20%" width="140%" height="140%">
      <feDropShadow dx="0" dy="14" stdDeviation="14" flood-color="#17212b" flood-opacity=".12"/>
    </filter>
  </defs>
  <rect width="640" height="400" fill="url(#c)"/>
  <circle cx="92" cy="78" r="34" fill="#ef5b4c" opacity=".9"/>
  <rect x="482" y="60" width="72" height="72" rx="16" fill="#4154b3" opacity=".9"/>
  <path d="M512 266c40 22 68 52 84 90" fill="none" stroke="#0f766e" stroke-width="14" stroke-linecap="round" opacity=".35"/>
  <g filter="url(#shadow)">
    <rect x="146" y="70" width="348" height="70" rx="12" fill="#ffffff"/>
    <rect x="124" y="164" width="392" height="70" rx="12" fill="#ffffff"/>
    <rect x="156" y="258" width="328" height="70" rx="12" fill="#ffffff"/>
  </g>
  <g fill="#17212b" opacity=".72">
    <rect x="190" y="97" width="146" height="12" rx="6"/>
    <rect x="190" y="191" width="188" height="12" rx="6"/>
    <rect x="190" y="285" width="138" height="12" rx="6"/>
  </g>
  <g fill="#0f766e">
    <circle cx="168" cy="104" r="11"/>
    <circle cx="146" cy="198" r="11"/>
    <circle cx="178" cy="292" r="11"/>
  </g>
  <path d="m162 104 5 5 10-14M140 198l5 5 10-14M172 292l5 5 10-14" fill="none" stroke="#ffffff" stroke-width="4" stroke-linecap="round" stroke-linejoin="round"/>
  <rect x="360" y="94" width="78" height="18" rx="9" fill="#dff9f2"/>
  <rect x="416" y="188" width="56" height="18" rx="9" fill="#ffe4df"/>
  <rect x="354" y="282" width="86" height="18" rx="9" fill="#dfe7ff"/>
</svg>
