<svg xmlns="http://www.w3.org/2000/svg" width="192" height="192" viewBox="0 0 192 192">
  <rect width="192" height="192" fill="none"/>
  <g fill="none" stroke="#dfe4ee" stroke-width="2" opacity=".82">
    <path d="M0 48h42c8 0 10-12 2-16-8-4-6-18 6-18s14 14 6 18c-8 4-6 16 2 16h38v38c0 8 12 10 16 2 4-8 18-6 18 6s-14 14-18 6c-4-8-16-6-16 2v42H58c-8 0-10 12-2 16 8 4 6 18-6 18s-14-14-6-18c8-4 6-16-2-16H0"/>
    <path d="M96 0v42c0 8 12 10 16 2 4-8 18-6 18 6s-14 14-18 6c-4-8-16-6-16 2v38h38c8 0 10 12 2 16-8 4-6 18 6 18s14-14 6-18c-8-4-6-16 2-16h42"/>
    <path d="M0 144h42c8 0 10-12 2-16-8-4-6-18 6-18s14 14 6 18c-8 4-6 16 2 16h38"/>
    <path d="M144 0v42c0 8-12 10-16 2-4-8-18-6-18 6s14 14 18 6c4-8 16-6 16 2v38"/>
  </g>
</svg>
